<svg width="24" height="29" viewBox="0 0 24 29" fill="none" xmlns="http://www.w3.org/2000/svg">
<path d="M20 14C20 12.1435 19.2629 10.3626 17.9502 9.0498C16.7194 7.819 15.077 7.09452 13.3467 7.00879L13 7C11.1435 7 9.36256 7.73705 8.0498 9.0498C6.73705 10.3626 6 12.1435 6 14C6 16.1593 7.21679 18.4871 8.79785 20.5645C10.3257 22.5717 12.0795 24.1963 13 24.9951C13.9205 24.1963 15.6743 22.5717 17.2021 20.5645C18.7832 18.4871 20 16.1593 20 14ZM15 14C15 12.8954 14.1046 12 13 12C11.8954 12 11 12.8954 11 14C11 15.1046 11.8954 16 13 16C14.1046 16 15 15.1046 15 14ZM17 14C17 16.2091 15.2091 18 13 18C10.7909 18 9 16.2091 9 14C9 11.7909 10.7909 10 13 10C15.2091 10 17 11.7909 17 14ZM22 14C22 16.8337 20.4474 19.603 18.7939 21.7754C17.1175 23.978 15.2102 25.7308 14.2549 26.5557C14.2379 26.5704 14.2201 26.5851 14.2021 26.5986C13.899 26.8266 13.538 26.9626 13.1621 26.9932L13 27C12.5664 27 12.1444 26.8592 11.7979 26.5986C11.7799 26.5851 11.7621 26.5704 11.7451 26.5557C10.7898 25.7308 8.88248 23.978 7.20605 21.7754C5.55262 19.603 4 16.8337 4 14C4 11.6131 4.94791 9.32357 6.63574 7.63574C8.32357 5.94791 10.6131 5 13 5C15.3869 5 17.6764 5.94791 19.3643 7.63574C21.0521 9.32357 22 11.6131 22 14Z" fill="#FAC114"/>
</svg>
