<svg width="28" height="28" viewBox="0 0 28 28" fill="none" xmlns="http://www.w3.org/2000/svg">
<path d="M8.41504 4.2002L7.10352 5.5166L5.13184 3.55176V10.9062L13.7949 2.24316H8.93652V0.383789H27.6152V19.0625H25.7559V14.2041L17.0928 22.8672H24.4473L22.4824 20.8955L23.7988 19.584L27.999 23.7979L23.7979 27.999L22.4834 26.6846L24.4414 24.7266H3.27246V3.55762L1.31445 5.51562L0 4.20117L4.20117 0L8.41504 4.2002ZM5.13184 20.625V22.8672H7.37402L25.7559 4.47363V2.24316H23.5254L5.13184 20.625ZM10.0029 22.8672H14.4639L25.7559 11.5752V7.10352L10.0029 22.8672ZM5.13184 13.5352V17.9961L20.8955 2.24316H16.4238L5.13184 13.5352Z" fill="#FFC107"/>
</svg>
