<svg width="82" height="82" viewBox="0 0 82 82" fill="none" xmlns="http://www.w3.org/2000/svg">
<path d="M79.0747 40.0761C79.0747 61.2482 61.8649 78.4116 40.6355 78.4116C19.4061 78.4116 2.19629 61.2482 2.19629 40.0761C2.19629 18.9039 19.4061 1.74054 40.6355 1.74054C61.8649 1.74054 79.0747 18.9039 79.0747 40.0761Z" fill="url(#paint0_linear_47_403)"/>
<path d="M68.2968 12.8808C61.0385 5.63605 51.3858 1.64421 41.1013 1.64014C19.9112 1.64014 2.66499 18.8333 2.65651 39.9665C2.65379 46.7217 4.42404 53.3158 7.78826 59.1282L2.33416 78.9901L22.7143 73.6603C28.3296 76.7137 34.6516 78.3228 41.0861 78.3256H41.1019C62.2899 78.3256 79.5377 61.1303 79.5463 39.9969C79.5504 29.7556 75.5553 20.1256 68.2968 12.8808ZM41.1019 71.8522H41.0888C35.355 71.85 29.7313 70.3143 24.8253 67.4117L23.6584 66.7213L11.5645 69.8842L14.7927 58.1284L14.0327 56.9231C10.8341 51.8509 9.14477 45.9883 9.14728 39.969C9.15419 22.404 23.4887 8.11361 41.1142 8.11361C49.6489 8.11685 57.6719 11.435 63.7048 17.4565C69.7378 23.478 73.0583 31.4822 73.0552 39.9945C73.0483 57.5609 58.7139 71.8522 41.1019 71.8522ZM58.6291 47.9927C57.6683 47.5134 52.9457 45.1964 52.0651 44.8768C51.1847 44.5571 50.5444 44.3973 49.9037 45.3562C49.2635 46.315 47.4226 48.4722 46.8621 49.1113C46.3018 49.7505 45.7415 49.8305 44.7809 49.351C43.8202 48.8717 40.7251 47.8603 37.056 44.5976C34.2005 42.0584 32.2725 38.9219 31.7121 37.963C31.1518 37.0042 31.6526 36.486 32.1334 36.0084C32.5655 35.5794 33.094 34.8899 33.5743 34.3307C34.0545 33.7716 34.2147 33.3719 34.5349 32.7328C34.8551 32.0936 34.695 31.5342 34.4548 31.0549C34.2147 30.5755 32.2935 25.8616 31.493 23.9441C30.7134 22.0766 29.9213 22.3293 29.3316 22.2999C28.7719 22.2721 28.1309 22.2663 27.4906 22.2663C26.8503 22.2663 25.8095 22.5059 24.9291 23.4647C24.0486 24.4235 21.567 26.7405 21.567 31.4544C21.567 36.1682 25.009 40.7223 25.4894 41.3614C25.9697 42.0006 32.2629 51.6742 41.8991 55.8225C44.1911 56.8092 45.9803 57.3985 47.3754 57.8399C49.6766 58.5686 51.7706 58.4659 53.4259 58.2194C55.2715 57.9444 59.1091 55.9026 59.9098 53.6655C60.7103 51.4283 60.7103 49.5109 60.4701 49.1114C60.23 48.7119 59.5897 48.4722 58.6291 47.9927Z" fill="white"/>
<path d="M42.084 0.83252C52.2164 1.08242 61.6952 5.133 68.876 12.3003C76.2885 19.6987 80.3704 29.538 80.3662 39.9976C80.3583 59.0446 66.6431 74.9523 48.5527 78.4341C45.9954 78.9564 43.3478 79.2319 40.6357 79.2319C33.9672 79.2319 27.6878 77.5709 22.1875 74.645L2.54199 79.7837L1.16699 80.1431L1.54297 78.7729L6.74121 59.8413C3.33276 54.0397 1.37598 47.2861 1.37598 40.0757C1.37617 21.0956 14.9162 5.27388 32.8848 1.68506C35.5356 1.11979 38.2843 0.819824 41.1016 0.819824L42.084 0.83252ZM12.7314 68.731L13.6309 68.4956C13.4084 68.2852 13.1882 68.0724 12.9707 67.8569L12.7314 68.731Z" stroke="url(#paint1_linear_47_403)" stroke-width="1.64025"/>
<defs>
<linearGradient id="paint0_linear_47_403" x1="44.4523" y1="12.3832" x2="40.8713" y2="66.8147" gradientUnits="userSpaceOnUse">
<stop stop-color="#FAC114"/>
<stop offset="1" stop-color="#94720C"/>
</linearGradient>
<linearGradient id="paint1_linear_47_403" x1="40.9402" y1="1.64014" x2="33.7307" y2="79.1067" gradientUnits="userSpaceOnUse">
<stop stop-color="#FAC114"/>
<stop offset="1" stop-color="#936F00"/>
</linearGradient>
</defs>
</svg>
