<svg width="258" height="34" viewBox="0 0 258 34" fill="none" xmlns="http://www.w3.org/2000/svg">
<path d="M34.606 32.4867H16.6721V24.9243H26.7073V7.56234H7.89876V32.4867H0V0H34.606V32.4867Z" fill="#F7B607"/>
<path d="M47.0145 29.6562H47.8299V30.3104C47.8343 30.5377 47.8099 30.7647 47.757 30.9864C47.7208 31.1515 47.6353 31.303 47.511 31.4225C47.3688 31.537 47.1862 31.5947 47.0008 31.5839C46.8206 31.5941 46.6426 31.5414 46.4997 31.4356C46.3705 31.3203 46.2854 31.1667 46.2583 30.9995C46.2095 30.7861 46.1866 30.5681 46.19 30.3497V27.3535C46.1902 27.1507 46.2055 26.9481 46.2355 26.7473C46.2563 26.5854 46.3277 26.4334 46.4405 26.3112C46.5103 26.249 46.5931 26.2017 46.6834 26.1723C46.7737 26.143 46.8695 26.1324 46.9644 26.1411C47.141 26.1258 47.3173 26.1723 47.4609 26.2719C47.5728 26.372 47.6452 26.5061 47.6659 26.6514C47.7035 26.8469 47.7203 27.0457 47.716 27.2445V27.6544H49.0279V27.2837C49.0373 26.8956 48.9693 26.5092 48.8275 26.1455C48.7015 25.8418 48.4697 25.5891 48.1715 25.4302C47.7923 25.2475 47.3702 25.1619 46.9462 25.1816C46.4926 25.1588 46.0418 25.2618 45.6479 25.4782C45.3278 25.6849 45.0952 25.9942 44.992 26.3504C44.8598 26.7837 44.7968 27.2337 44.8052 27.685V30.0924C44.7969 30.5354 44.8614 30.9769 44.9965 31.4007C45.101 31.7494 45.3218 32.0557 45.6251 32.273C45.9755 32.4897 46.3884 32.595 46.8049 32.5739C47.0987 32.5903 47.3895 32.5103 47.6294 32.3471C47.833 32.1947 47.9903 31.9929 48.085 31.7627L48.1852 32.4779H49.0689V28.8058H47.0236L47.0145 29.6562Z" fill="white"/>
<path d="M51.2098 29.1678H52.6129V28.2519H51.2098V26.176H52.9955V25.2514H49.8342V32.4649H53.0137V31.5577H51.2098V29.1678Z" fill="white"/>
<path d="M56.1933 28.6968L55.2549 27.9118C55.0804 27.7697 54.9271 27.6053 54.7994 27.4233C54.6869 27.2415 54.6315 27.0326 54.6399 26.8214C54.6346 26.6495 54.6926 26.4812 54.8039 26.3461C54.8599 26.2834 54.93 26.2336 55.0088 26.2004C55.0877 26.1672 55.1733 26.1514 55.2594 26.1542C55.3422 26.1486 55.4253 26.1593 55.5036 26.1856C55.5819 26.2118 55.6539 26.2531 55.715 26.3068C55.8277 26.4301 55.9019 26.5812 55.9291 26.7429C55.9713 26.9428 55.9972 27.1455 56.0065 27.3492L57.1772 27.1529C57.1614 26.9008 57.1186 26.6509 57.0496 26.4071C56.9851 26.1828 56.8787 25.9714 56.7353 25.7835C56.5949 25.5908 56.4007 25.4397 56.175 25.3474C55.8958 25.2344 55.5943 25.1809 55.2913 25.1904C54.7729 25.1619 54.2632 25.3277 53.8701 25.6526C53.6905 25.8224 53.5508 26.027 53.4605 26.2526C53.3702 26.4783 53.3312 26.7198 53.3462 26.961C53.3357 27.3091 53.4172 27.6542 53.5831 27.9641C53.7497 28.2419 53.9655 28.4898 54.2208 28.6968L55.1683 29.4992C55.3965 29.6708 55.6002 29.8702 55.7742 30.0924C55.931 30.321 56.0091 30.591 55.9974 30.8643C56.0048 31.0372 55.9554 31.208 55.8562 31.3527C55.8018 31.417 55.7319 31.4677 55.6526 31.5003C55.5732 31.533 55.4868 31.5467 55.4007 31.5403C55.2317 31.5415 55.0687 31.4806 54.9451 31.3702C54.8129 31.229 54.7204 31.0579 54.6764 30.873C54.6123 30.6319 54.5771 30.3847 54.5716 30.136L53.3872 30.3584C53.3917 30.7719 53.4798 31.1807 53.6469 31.5621C53.7907 31.8727 54.0329 32.1321 54.3393 32.3035C54.6868 32.4838 55.0786 32.5712 55.4735 32.5564C55.8181 32.5648 56.1589 32.4866 56.462 32.3297C56.7382 32.1824 56.9668 31.9651 57.1225 31.7016C57.2849 31.4219 57.3666 31.1058 57.3594 30.7858C57.3727 30.3586 57.259 29.9367 57.0314 29.569C56.8017 29.2379 56.5188 28.9435 56.1933 28.6968Z" fill="white"/>
<path d="M61.1585 25.2514H57.4004V26.224H58.603V32.4649H59.9787V26.224H61.1585V25.2514Z" fill="white"/>
<path d="M62.2927 25.2514L60.7849 32.4649H62.0786L62.3838 30.7989H63.6957L63.9964 32.4649H65.2673L63.7732 25.2514H62.2927ZM62.525 29.9615L63.0352 26.9348L63.5499 29.9615H62.525Z" fill="white"/>
<path d="M68.9934 25.4477C68.5978 25.2457 68.1521 25.1507 67.7043 25.1729C67.2625 25.1521 66.8231 25.2471 66.4334 25.4477C66.1155 25.6294 65.8739 25.9117 65.7501 26.2458C65.6077 26.6486 65.5398 27.0722 65.5497 27.4974V30.1927C65.541 30.6221 65.6088 31.0498 65.7501 31.4574C65.8733 31.7975 66.1145 32.0868 66.4334 32.2773C66.8316 32.4651 67.2695 32.5627 67.7134 32.5627C68.1573 32.5627 68.5952 32.4651 68.9934 32.2773C69.3171 32.0856 69.5641 31.7953 69.6949 31.4531C69.844 31.0516 69.9151 30.6274 69.9045 30.2014V27.4974C69.9162 27.0714 69.8452 26.647 69.6949 26.2458C69.5639 25.9104 69.3162 25.6286 68.9934 25.4477ZM68.4878 30.5285C68.4901 30.7103 68.4702 30.8918 68.4286 31.0693C68.4011 31.219 68.3246 31.3565 68.2099 31.4618C68.0667 31.5697 67.8859 31.6212 67.7043 31.6057C67.5244 31.6192 67.3457 31.5678 67.2032 31.4618C67.0853 31.359 67.0081 31.2203 66.9846 31.0693C66.9483 30.8912 66.9316 30.7099 66.9345 30.5285V27.1922C66.9323 27.0105 66.9507 26.8292 66.9891 26.6514C67.0164 26.5043 67.0952 26.3705 67.2123 26.2719C67.3606 26.1791 67.534 26.1296 67.7112 26.1296C67.8883 26.1296 68.0617 26.1791 68.2099 26.2719C68.3243 26.372 68.4012 26.5053 68.4286 26.6514C68.471 26.8287 68.4908 27.0103 68.4878 27.1922V30.5285Z" fill="white"/>
<path d="M70.3281 32.4649H70.9977C71.0096 32.6505 70.946 32.8334 70.8201 32.9751C70.705 33.0962 70.5566 33.1839 70.3919 33.2281L70.524 33.6642C70.832 33.6186 71.1104 33.4627 71.3029 33.2281C71.4857 32.9718 71.5768 32.6658 71.5626 32.3558V31.2612H70.3281V32.4649Z" fill="white"/>
<path d="M77.908 25.2514L76.792 30.245L75.7215 25.2514H74.2957L74.1682 32.4649H75.2022L75.3024 27.432L76.3911 32.4649H77.2156L78.2861 27.4495L78.4 32.4649H79.4204L79.2837 25.2514H77.908Z" fill="white"/>
<path d="M81.3837 25.2514L79.8759 32.4649H81.1696L81.4748 30.7989H82.7867L83.0873 32.4649H84.3582L82.855 25.2514H81.3837ZM81.616 29.9615L82.1262 26.9348L82.6409 29.9615H81.616Z" fill="white"/>
<path d="M87.6243 29.364L85.7931 25.2514H84.832V32.4649H86.0072V28.156L87.8475 32.4649H88.7586V25.2514H87.6243V29.364Z" fill="white"/>
<path d="M92.4711 30.2843C92.4736 30.496 92.4568 30.7076 92.421 30.9166C92.3988 31.0941 92.3246 31.262 92.2069 31.4007C92.0619 31.5187 91.8778 31.5835 91.6876 31.5835C91.4973 31.5835 91.3132 31.5187 91.1683 31.4007C91.045 31.2648 90.9686 31.0957 90.9496 30.9166C90.9161 30.7074 90.8993 30.496 90.8995 30.2843V25.2514H89.5603V30.1316C89.5499 30.5738 89.6098 31.015 89.7379 31.44C89.8439 31.7821 90.0731 32.0773 90.3848 32.273C90.7905 32.4652 91.2371 32.5652 91.6899 32.5652C92.1426 32.5652 92.5892 32.4652 92.9949 32.273C93.3032 32.0748 93.5277 31.7779 93.6281 31.4356C93.7563 31.0106 93.8162 30.5695 93.8058 30.1272V25.2514H92.4711V30.2843Z" fill="white"/>
<path d="M94.1611 26.224H95.3591V32.4649H96.7348V26.224H97.9191V25.2514H94.1611V26.224Z" fill="white"/>
<path d="M99.7002 29.1678H101.108V28.2519H99.7002V26.176H101.486V25.2514H98.3245V32.4649H101.509V31.5577H99.7002V29.1678Z" fill="white"/>
<path d="M104.816 29.364L102.985 25.2514H102.028V32.4649H103.199V28.156L105.039 32.4649H105.95V25.2514H104.816V29.364Z" fill="white"/>
<path d="M110.068 25.4259C109.69 25.2385 109.267 25.1512 108.843 25.1729C108.389 25.1488 107.939 25.2502 107.544 25.4651C107.232 25.6644 107.001 25.9599 106.888 26.3025C106.758 26.7182 106.697 27.1508 106.706 27.5847V30.1578C106.698 30.5787 106.76 30.9981 106.888 31.4007C107.001 31.7526 107.232 32.0591 107.544 32.273C107.935 32.4983 108.387 32.6062 108.843 32.5826C109.277 32.607 109.709 32.51 110.086 32.3035C110.378 32.1125 110.592 31.8305 110.692 31.5054C110.817 31.1395 110.877 30.7563 110.87 30.3715V29.7914H109.549V30.4413C109.551 30.6352 109.539 30.8291 109.512 31.0213C109.501 31.1813 109.437 31.3338 109.33 31.4574C109.265 31.5157 109.188 31.5599 109.104 31.587C109.02 31.6141 108.931 31.6235 108.843 31.6144C108.68 31.6201 108.52 31.5741 108.387 31.4836C108.266 31.3843 108.183 31.2493 108.15 31.0998C108.104 30.8876 108.083 30.6711 108.086 30.4543V27.3012C108.084 27.1026 108.099 26.9042 108.132 26.7081C108.151 26.5448 108.224 26.3918 108.341 26.2719C108.412 26.2143 108.494 26.1707 108.582 26.1437C108.671 26.1168 108.764 26.107 108.856 26.1149C108.945 26.1054 109.035 26.1137 109.121 26.1392C109.206 26.1647 109.285 26.2069 109.353 26.2632C109.455 26.374 109.517 26.5131 109.53 26.6601C109.553 26.8424 109.564 27.026 109.562 27.2096V27.8332H110.883V27.2445C110.889 26.8773 110.824 26.5122 110.692 26.1673C110.581 25.8579 110.36 25.5956 110.068 25.4259Z" fill="white"/>
<path d="M112.683 25.2514L111.179 32.4649H112.469L112.778 30.7989H114.086L114.386 32.4649H115.657L114.154 25.2514H112.683ZM112.915 29.9615L113.425 26.9348L113.935 29.9615H112.915Z" fill="white"/>
<path d="M119.383 25.4477C118.988 25.2457 118.542 25.1507 118.094 25.1729C117.652 25.1521 117.213 25.2471 116.823 25.4477C116.511 25.6308 116.275 25.9133 116.158 26.2458C116.012 26.6478 115.942 27.0718 115.953 27.4974V30.1927C115.944 30.6225 116.013 31.0506 116.158 31.4574C116.276 31.7942 116.51 32.0822 116.823 32.273C117.222 32.4607 117.659 32.5584 118.103 32.5584C118.547 32.5584 118.985 32.4607 119.383 32.273C119.698 32.0787 119.936 31.7905 120.062 31.4531C120.211 31.0516 120.282 30.6274 120.272 30.2014V27.4974C120.283 27.0714 120.212 26.647 120.062 26.2458C119.937 25.9138 119.698 25.6323 119.383 25.4477ZM118.891 30.5285C118.894 30.7103 118.874 30.8918 118.832 31.0693C118.805 31.219 118.728 31.3565 118.614 31.4618C118.47 31.5697 118.289 31.6212 118.108 31.6057C117.928 31.6183 117.75 31.5671 117.607 31.4618C117.492 31.3565 117.416 31.219 117.388 31.0693C117.354 30.8908 117.337 30.7098 117.338 30.5285V27.1922C117.336 27.0105 117.354 26.8292 117.393 26.6514C117.422 26.5049 117.5 26.3716 117.616 26.2719C117.758 26.1713 117.932 26.1218 118.108 26.1324C118.289 26.1178 118.469 26.1675 118.614 26.2719C118.728 26.372 118.805 26.5053 118.832 26.6514C118.875 26.8287 118.894 27.0103 118.891 27.1922V30.5285Z" fill="white"/>
<path d="M124.362 29.1678H125.765V28.2519H124.362V26.176H126.148V25.2514H122.987V32.4649H126.166V31.5577H124.362V29.1678Z" fill="white"/>
<path d="M130.061 25.2514H128.703V32.4649H130.061V25.2514Z" fill="white"/>
<path d="M133.737 29.364L131.906 25.2514H130.945V32.4649H132.12V28.156L133.96 32.4649H134.871V25.2514H133.737V29.364Z" fill="white"/>
<path d="M138.397 28.6968L137.454 27.9118C137.281 27.7685 137.128 27.6043 136.998 27.4233C136.888 27.2411 136.834 27.0321 136.844 26.8214C136.839 26.6503 136.895 26.4828 137.003 26.3461C137.059 26.2834 137.129 26.2336 137.208 26.2004C137.287 26.1672 137.372 26.1514 137.458 26.1542C137.541 26.1479 137.625 26.1582 137.703 26.1844C137.782 26.2107 137.853 26.2524 137.914 26.3068C138.031 26.4273 138.106 26.5798 138.128 26.7429C138.172 26.9426 138.199 27.1453 138.21 27.3492L139.381 27.1529C139.363 26.9006 139.319 26.6507 139.249 26.4071C139.186 26.183 139.081 25.9717 138.939 25.7835C138.795 25.592 138.6 25.4413 138.374 25.3474C138.096 25.2344 137.796 25.1808 137.495 25.1904C136.975 25.1617 136.464 25.3274 136.069 25.6526C135.891 25.8233 135.753 26.0281 135.663 26.2536C135.574 26.4791 135.535 26.7202 135.55 26.961C135.537 27.3093 135.619 27.6549 135.787 27.9641C135.952 28.2428 136.168 28.491 136.424 28.6968L137.372 29.4992C137.599 29.6719 137.802 29.8712 137.978 30.0924C138.135 30.321 138.213 30.591 138.201 30.8643C138.205 31.0369 138.156 31.2069 138.06 31.3527C138.005 31.417 137.936 31.4677 137.856 31.5003C137.777 31.533 137.69 31.5467 137.604 31.5403C137.517 31.5445 137.429 31.5315 137.347 31.5023C137.265 31.4731 137.189 31.4281 137.126 31.3702C136.992 31.2302 136.899 31.0586 136.857 30.873C136.794 30.6317 136.757 30.3847 136.748 30.136L135.568 30.3584C135.572 30.7719 135.661 31.1807 135.828 31.5621C135.97 31.8724 136.21 32.1318 136.516 32.3035C136.863 32.4828 137.255 32.5701 137.65 32.5564C137.994 32.5654 138.335 32.4872 138.638 32.3297C138.915 32.1835 139.144 31.9659 139.299 31.7016C139.463 31.4222 139.546 31.1061 139.54 30.7858C139.552 30.3582 139.437 29.9362 139.208 29.569C138.988 29.2386 138.714 28.9441 138.397 28.6968Z" fill="white"/>
<path d="M143.362 25.2514H139.604V26.224H140.802V32.4649H142.178V26.224H143.362V25.2514Z" fill="white"/>
<path d="M144.496 25.2514L142.989 32.4649H144.282L144.587 30.7989H145.899L146.195 32.4649H147.471L145.963 25.2514H144.496ZM144.729 29.9615L145.239 26.9348L145.767 29.9615H144.729Z" fill="white"/>
<path d="M149.32 25.2514H147.945V32.4649H151.142V31.5577H149.32V25.2514Z" fill="white"/>
<path d="M152.705 25.2514L151.197 32.4649H152.491L152.796 30.7989H154.108L154.408 32.4649H155.679L154.176 25.2514H152.705ZM152.937 29.9615L153.447 26.9348L153.967 29.9615H152.937Z" fill="white"/>
<path d="M159.406 25.4259C159.028 25.2381 158.605 25.1508 158.18 25.1729C157.729 25.1481 157.279 25.2496 156.887 25.4651C156.577 25.664 156.35 25.9602 156.244 26.3025C156.11 26.7174 156.047 27.1504 156.057 27.5847V30.1578C156.049 30.579 156.112 30.9988 156.244 31.4007C156.353 31.7542 156.585 32.0618 156.9 32.273C157.292 32.4654 157.726 32.5658 158.167 32.5658C158.607 32.5658 159.041 32.4654 159.433 32.273C159.726 32.0894 159.944 31.8155 160.052 31.4967C160.177 31.1308 160.237 30.7475 160.23 30.3628V29.7914H158.909V30.4413C158.911 30.6353 158.897 30.8292 158.868 31.0213C158.858 31.1809 158.796 31.3334 158.69 31.4574C158.625 31.5152 158.548 31.5591 158.464 31.5862C158.38 31.6133 158.291 31.6229 158.203 31.6144C158.04 31.6192 157.88 31.5733 157.747 31.4836C157.626 31.3843 157.543 31.2493 157.511 31.0998C157.464 30.8876 157.443 30.6711 157.447 30.4543V27.3012C157.444 27.1026 157.46 26.9042 157.492 26.7081C157.511 26.5448 157.585 26.3918 157.702 26.2719C157.773 26.2144 157.856 26.1709 157.945 26.1439C158.034 26.117 158.128 26.1071 158.221 26.1149C158.31 26.1059 158.4 26.1144 158.485 26.1399C158.571 26.1654 158.65 26.2074 158.718 26.2632C158.82 26.374 158.882 26.5131 158.895 26.6601C158.916 26.8426 158.927 27.026 158.927 27.2096V27.8332H160.248V27.2445C160.255 26.8718 160.192 26.5011 160.062 26.1498C159.936 25.8435 159.705 25.5878 159.406 25.4259Z" fill="white"/>
<path d="M164.23 25.4477C163.829 25.2667 163.392 25.1728 162.95 25.1728C162.507 25.1728 162.07 25.2667 161.67 25.4477C161.354 25.631 161.114 25.9129 160.991 26.2458C160.844 26.6478 160.775 27.0718 160.786 27.4974V30.1927C160.776 30.6225 160.846 31.0506 160.991 31.4574C161.115 31.7947 161.354 32.082 161.67 32.273C162.059 32.4788 162.501 32.5769 162.945 32.5564C163.393 32.5794 163.839 32.4795 164.23 32.2686C164.541 32.0752 164.776 31.7884 164.899 31.4531C165.048 31.0516 165.119 30.6274 165.109 30.2014V27.4974C165.12 27.0714 165.049 26.647 164.899 26.2458C164.778 25.9142 164.542 25.6325 164.23 25.4477ZM163.724 30.5285C163.725 30.7101 163.707 30.8913 163.669 31.0693C163.642 31.219 163.565 31.3565 163.451 31.4618C163.307 31.5685 163.126 31.6199 162.945 31.6057C162.861 31.6167 162.775 31.6115 162.692 31.5904C162.61 31.5693 162.533 31.5327 162.465 31.4828C162.398 31.4328 162.342 31.3706 162.3 31.2996C162.258 31.2286 162.231 31.1503 162.221 31.0693C162.185 30.891 162.167 30.71 162.166 30.5285V27.1922C162.164 27.0105 162.182 26.8292 162.221 26.6514C162.252 26.5055 162.33 26.3728 162.444 26.2719C162.594 26.1808 162.767 26.1323 162.945 26.1323C163.122 26.1323 163.296 26.1808 163.446 26.2719C163.56 26.372 163.637 26.5053 163.665 26.6514C163.703 26.8292 163.721 27.0105 163.719 27.1922L163.724 30.5285Z" fill="white"/>
<path d="M167.231 29.1678H168.634V28.2519H167.231V26.176H169.017V25.2514H165.856V32.4649H169.035V31.5577H167.231V29.1678Z" fill="white"/>
<path d="M172.215 28.6968L171.276 27.9118C171.102 27.7697 170.949 27.6053 170.821 27.4233C170.708 27.2415 170.653 27.0326 170.662 26.8214C170.654 26.6485 170.71 26.4786 170.821 26.3417C170.877 26.2788 170.947 26.2288 171.026 26.1956C171.105 26.1624 171.19 26.1467 171.276 26.1498C171.359 26.1443 171.442 26.155 171.521 26.1812C171.599 26.2075 171.671 26.2487 171.732 26.3025C171.845 26.4257 171.919 26.5768 171.946 26.7386C171.988 26.9384 172.014 27.1411 172.024 27.3448L173.194 27.1485C173.19 26.8916 173.158 26.6359 173.099 26.3853C173.034 26.1609 172.928 25.9496 172.784 25.7617C172.644 25.569 172.45 25.4179 172.224 25.3256C171.945 25.213 171.643 25.1595 171.34 25.1685C170.818 25.139 170.305 25.3065 169.91 25.6352C169.73 25.805 169.591 26.0095 169.5 26.2352C169.41 26.4608 169.371 26.7023 169.386 26.9436C169.376 27.2917 169.457 27.6367 169.623 27.9466C169.789 28.2244 170.005 28.4724 170.261 28.6793L171.208 29.4818C171.431 29.6598 171.629 29.8651 171.796 30.0924C171.953 30.321 172.031 30.591 172.019 30.8643C172.026 31.0372 171.977 31.208 171.878 31.3527C171.823 31.417 171.754 31.4677 171.674 31.5003C171.595 31.533 171.508 31.5467 171.422 31.5403C171.253 31.5415 171.09 31.4806 170.967 31.3702C170.834 31.229 170.742 31.0579 170.698 30.873C170.634 30.6317 170.598 30.3847 170.589 30.136L169.409 30.3584C169.413 30.7719 169.501 31.1807 169.668 31.5621C169.812 31.8716 170.052 32.1307 170.356 32.3035C170.704 32.4828 171.096 32.5701 171.491 32.5564C171.837 32.5654 172.179 32.4872 172.484 32.3297C172.742 32.1774 172.955 31.9622 173.099 31.706C173.261 31.4262 173.343 31.1101 173.335 30.7901C173.349 30.3623 173.234 29.9398 173.003 29.5734C172.79 29.2431 172.524 28.9472 172.215 28.6968Z" fill="white"/>
<path d="M179.166 25.4913C178.827 25.32 178.447 25.2373 178.064 25.2514H175.832V32.4649H177.198V29.2594H177.941C178.307 29.2678 178.67 29.2009 179.007 29.0631C179.307 28.9342 179.554 28.7133 179.708 28.4351C179.891 28.0836 179.977 27.6934 179.959 27.3012C179.97 26.9232 179.903 26.5468 179.763 26.1934C179.648 25.904 179.439 25.6578 179.166 25.4913ZM178.615 27.9118C178.594 27.983 178.557 28.0492 178.508 28.1063C178.458 28.1633 178.397 28.2099 178.328 28.2432C178.145 28.3215 177.945 28.3573 177.745 28.3479H177.226V26.1673H177.745C177.962 26.1527 178.179 26.1933 178.374 26.285C178.442 26.3237 178.5 26.3762 178.545 26.4387C178.59 26.5012 178.62 26.5723 178.633 26.647C178.68 26.8562 178.701 27.0698 178.697 27.2837C178.707 27.496 178.679 27.7083 178.615 27.9118Z" fill="white"/>
<path d="M184.268 28.531C184.408 28.3577 184.506 28.1566 184.555 27.9423C184.613 27.6843 184.64 27.421 184.637 27.1573C184.658 26.7609 184.563 26.3668 184.364 26.019C184.18 25.74 183.902 25.5305 183.576 25.4259C183.161 25.2997 182.726 25.2407 182.291 25.2514H180.469V32.4649H181.835V29.1591H182.464L183.375 32.4649H184.742L183.689 28.9105C183.917 28.8407 184.118 28.7088 184.268 28.531ZM183.252 27.8638C183.191 28.0209 183.069 28.1492 182.911 28.2214C182.711 28.3045 182.495 28.3433 182.277 28.3348H181.849V26.1673H182.35C182.496 26.1486 182.644 26.1638 182.782 26.2116C182.92 26.2594 183.044 26.3385 183.143 26.442C183.301 26.6841 183.375 26.9683 183.352 27.2532C183.358 27.4609 183.324 27.6678 183.252 27.8638Z" fill="white"/>
<path d="M186.787 29.1678H188.19V28.2519H186.787V26.176H188.573V25.2514H185.411V32.4649H188.591V31.5577H186.787V29.1678Z" fill="white"/>
<path d="M192.322 25.4913C191.867 25.3124 191.378 25.2306 190.887 25.2514H189.11V32.4649H190.932C191.41 32.485 191.885 32.3984 192.322 32.2119C192.657 32.0486 192.916 31.7719 193.05 31.4356C193.207 31.0161 193.281 30.5725 193.269 30.1272V27.5105C193.281 27.0794 193.207 26.6501 193.05 26.2458C192.915 25.9156 192.655 25.6463 192.322 25.4913ZM191.866 30.1665C191.87 30.4173 191.855 30.668 191.821 30.9166C191.802 31.0982 191.713 31.2665 191.57 31.3876C191.368 31.5093 191.129 31.5644 190.891 31.5446H190.472V26.1891H190.873C191.101 26.1725 191.329 26.2146 191.534 26.3112C191.603 26.3562 191.663 26.4141 191.709 26.4815C191.755 26.5489 191.787 26.6245 191.802 26.7037C191.851 26.9347 191.873 27.1702 191.866 27.4058V30.1665Z" fill="white"/>
<path d="M195.406 25.2514H194.048V32.4649H195.406V25.2514Z" fill="white"/>
<path d="M197.414 25.2514L195.907 32.4649H197.2L197.505 30.7989H198.817L199.113 32.4649H200.389L198.881 25.2514H197.414ZM197.647 29.9615L198.152 26.9348L198.662 29.9615H197.647Z" fill="white"/>
<path d="M202.257 25.2514H200.899V32.4649H202.257V25.2514Z" fill="white"/>
<path d="M205.801 28.6968L204.862 27.9118C204.688 27.7697 204.534 27.6053 204.407 27.4233C204.294 27.2415 204.239 27.0326 204.247 26.8214C204.242 26.6495 204.3 26.4812 204.411 26.3461C204.467 26.2834 204.537 26.2336 204.616 26.2004C204.695 26.1672 204.781 26.1514 204.867 26.1542C204.95 26.1479 205.033 26.1582 205.111 26.1844C205.19 26.2107 205.262 26.2524 205.322 26.3068C205.437 26.4285 205.512 26.5804 205.536 26.7429C205.581 26.9424 205.607 27.1453 205.614 27.3492L206.789 27.1529C206.772 26.9006 206.727 26.6507 206.657 26.4071C206.592 26.1837 206.487 25.9727 206.347 25.7835C206.203 25.592 206.008 25.4413 205.782 25.3474C205.503 25.2344 205.202 25.1809 204.899 25.1904C204.38 25.1619 203.87 25.3277 203.477 25.6526C203.299 25.8233 203.161 26.0281 203.071 26.2536C202.982 26.4791 202.943 26.7202 202.958 26.961C202.945 27.3093 203.027 27.6549 203.195 27.9641C203.358 28.2427 203.573 28.4909 203.828 28.6968L204.78 29.4992C205.005 29.6754 205.204 29.8792 205.372 30.1054C205.529 30.3341 205.607 30.6041 205.596 30.8774C205.601 31.0495 205.554 31.2195 205.459 31.3658C205.404 31.4295 205.334 31.4798 205.255 31.5124C205.176 31.545 205.089 31.559 205.003 31.5534C204.915 31.5571 204.827 31.544 204.744 31.5148C204.661 31.4856 204.585 31.4409 204.521 31.3833C204.388 31.2421 204.296 31.071 204.252 30.8861C204.188 30.645 204.153 30.3977 204.147 30.1491L202.967 30.3715C202.972 30.785 203.06 31.1938 203.227 31.5752C203.369 31.8855 203.61 32.1449 203.915 32.3166C204.262 32.4969 204.654 32.5843 205.049 32.5695C205.393 32.5779 205.734 32.4997 206.037 32.3427C206.314 32.1954 206.542 31.9782 206.698 31.7147C206.86 31.4349 206.942 31.1189 206.935 30.7989C206.948 30.3717 206.834 29.9497 206.607 29.5821C206.388 29.2486 206.116 28.9499 205.801 28.6968Z" fill="white"/>
<path d="M210.816 29.1678H212.219V28.2519H210.816V26.176H212.597V25.2514H209.436V32.4649H212.615V31.5577H210.816V29.1678Z" fill="white"/>
<path d="M216.514 25.2514H215.157V32.4649H216.514V25.2514Z" fill="white"/>
<path d="M220.186 29.364L218.355 25.2514H217.398V32.4649H218.569V28.156L220.409 32.4649H221.32V25.2514H220.186V29.364Z" fill="white"/>
<path d="M225.397 25.4913C224.943 25.3124 224.453 25.2306 223.962 25.2514H222.186V32.4649H224.008C224.485 32.485 224.961 32.3984 225.397 32.2119C225.732 32.0486 225.992 31.7719 226.126 31.4356C226.282 31.0161 226.357 30.5725 226.345 30.1272V27.5105C226.357 27.0794 226.283 26.6501 226.126 26.2458C225.991 25.9156 225.73 25.6463 225.397 25.4913ZM224.942 30.1665C224.945 30.4173 224.93 30.668 224.896 30.9166C224.878 31.0982 224.788 31.2665 224.645 31.3876C224.443 31.5093 224.205 31.5644 223.967 31.5446H223.548V26.1891H223.949C224.176 26.1725 224.404 26.2146 224.609 26.3112C224.679 26.3562 224.739 26.4141 224.785 26.4815C224.831 26.5489 224.863 26.6245 224.878 26.7037C224.927 26.9347 224.948 27.1702 224.942 27.4058V30.1665Z" fill="white"/>
<path d="M229.939 30.2843C229.941 30.496 229.924 30.7076 229.889 30.9166C229.866 31.0941 229.792 31.262 229.674 31.4007C229.607 31.4667 229.525 31.5174 229.434 31.5491C229.344 31.5808 229.247 31.5927 229.151 31.5839C229.056 31.5908 228.961 31.578 228.872 31.5464C228.783 31.5147 228.703 31.465 228.636 31.4007C228.513 31.2648 228.436 31.0957 228.417 30.9166C228.385 30.7073 228.37 30.4958 228.372 30.2843V25.2514H227.032V30.1316C227.023 30.5735 227.081 31.0143 227.206 31.44C227.31 31.7815 227.538 32.0765 227.848 32.273C228.254 32.4652 228.7 32.5652 229.153 32.5652C229.606 32.5652 230.052 32.4652 230.458 32.273C230.766 32.0739 230.992 31.7776 231.096 31.4356C231.22 31.0099 231.278 30.5691 231.269 30.1272V25.2514H229.939V30.2843Z" fill="white"/>
<path d="M234.731 28.6968L233.792 27.9118C233.618 27.7697 233.465 27.6053 233.337 27.4233C233.222 27.2423 233.167 27.0328 233.177 26.8214C233.172 26.6495 233.23 26.4812 233.341 26.3461C233.397 26.2832 233.467 26.2332 233.546 26.2C233.625 26.1667 233.711 26.1511 233.797 26.1542C233.88 26.1486 233.963 26.1593 234.041 26.1856C234.119 26.2118 234.191 26.2531 234.252 26.3068C234.365 26.4301 234.439 26.5812 234.467 26.7429C234.509 26.9428 234.535 27.1455 234.544 27.3492L235.715 27.1529C235.699 26.9008 235.656 26.6509 235.587 26.4071C235.523 26.1828 235.416 25.9714 235.273 25.7835C235.131 25.5917 234.938 25.4409 234.713 25.3474C234.433 25.2348 234.132 25.1813 233.829 25.1904C233.31 25.1619 232.801 25.3277 232.408 25.6526C232.228 25.8224 232.088 26.027 231.998 26.2526C231.908 26.4783 231.869 26.7198 231.884 26.961C231.873 27.3091 231.955 27.6542 232.121 27.9641C232.287 28.2419 232.503 28.4898 232.758 28.6968L233.706 29.4992C233.934 29.6708 234.138 29.8702 234.312 30.0924C234.469 30.321 234.547 30.591 234.535 30.8643C234.542 31.0372 234.493 31.208 234.394 31.3527C234.339 31.417 234.269 31.4677 234.19 31.5003C234.111 31.533 234.024 31.5467 233.938 31.5403C233.769 31.5415 233.606 31.4806 233.483 31.3702C233.349 31.2302 233.256 31.0586 233.214 30.873C233.15 30.6317 233.114 30.3847 233.105 30.136L231.925 30.3584C231.929 30.7719 232.017 31.1807 232.184 31.5621C232.328 31.8716 232.568 32.1307 232.872 32.3035C233.22 32.4828 233.612 32.5701 234.006 32.5564C234.352 32.5648 234.695 32.4866 235 32.3297C235.276 32.1824 235.504 31.9651 235.66 31.7016C235.82 31.421 235.902 31.1055 235.897 30.7858C235.911 30.358 235.795 29.9354 235.564 29.569C235.338 29.237 235.056 28.9424 234.731 28.6968Z" fill="white"/>
<path d="M235.938 26.224H237.14V32.4649H238.516V26.224H239.696V25.2514H235.938V26.224Z" fill="white"/>
<path d="M243.9 28.531C244.042 28.3587 244.141 28.1572 244.187 27.9423C244.245 27.6843 244.272 27.421 244.269 27.1573C244.29 26.7609 244.196 26.3668 243.996 26.019C243.809 25.7377 243.526 25.5278 243.194 25.4259C242.779 25.2997 242.345 25.2407 241.91 25.2514H240.088V32.4649H241.454V29.1591H242.087L242.999 32.4649H244.365L243.313 28.9105C243.543 28.8422 243.748 28.7102 243.9 28.531ZM242.885 27.8638C242.824 28.0209 242.701 28.1492 242.543 28.2214C242.344 28.3045 242.127 28.3433 241.91 28.3348H241.482V26.1673H241.983C242.129 26.1496 242.277 26.1654 242.416 26.2131C242.554 26.2609 242.679 26.3393 242.78 26.442C242.934 26.6855 243.006 26.969 242.985 27.2532C242.991 27.4609 242.957 27.6678 242.885 27.8638Z" fill="white"/>
<path d="M246.438 25.2514H245.08V32.4649H246.438V25.2514Z" fill="white"/>
<path d="M248.447 25.2514L246.939 32.4649H248.232L248.538 30.7989H249.85L250.146 32.4649H251.421L249.913 25.2514H248.447ZM248.679 29.9615L249.171 26.9348L249.681 29.9615H248.679Z" fill="white"/>
<path d="M253.289 25.2514H251.931V32.4649H253.289V25.2514Z" fill="white"/>
<path d="M256.833 28.6968L255.894 27.9118C255.72 27.7697 255.567 27.6053 255.439 27.4233C255.326 27.2415 255.271 27.0326 255.279 26.8214C255.274 26.6495 255.332 26.4812 255.443 26.3461C255.499 26.2834 255.569 26.2336 255.648 26.2004C255.727 26.1672 255.813 26.1514 255.899 26.1542C255.982 26.1486 256.065 26.1593 256.143 26.1856C256.221 26.2118 256.293 26.2531 256.354 26.3068C256.467 26.4301 256.541 26.5812 256.569 26.7429C256.611 26.9428 256.637 27.1455 256.646 27.3492L257.817 27.1529C257.801 26.9008 257.758 26.6509 257.689 26.4071C257.625 26.1828 257.518 25.9714 257.375 25.7835C257.234 25.5908 257.04 25.4397 256.815 25.3474C256.535 25.2344 256.234 25.1809 255.931 25.1904C255.412 25.1619 254.903 25.3277 254.51 25.6526C254.33 25.8224 254.19 26.027 254.1 26.2526C254.01 26.4783 253.971 26.7198 253.986 26.961C253.975 27.3091 254.057 27.6542 254.223 27.9641C254.389 28.2419 254.605 28.4898 254.86 28.6968L255.808 29.4992C256.036 29.6708 256.24 29.8702 256.414 30.0924C256.57 30.321 256.649 30.591 256.637 30.8643C256.644 31.0372 256.595 31.208 256.496 31.3527C256.441 31.417 256.371 31.4677 256.292 31.5003C256.213 31.533 256.126 31.5467 256.04 31.5403C255.871 31.5415 255.708 31.4806 255.585 31.3702C255.452 31.229 255.36 31.0579 255.316 30.873C255.252 30.6319 255.217 30.3847 255.211 30.136L254.027 30.3584C254.031 30.7719 254.119 31.1807 254.286 31.5621C254.43 31.8716 254.67 32.1307 254.974 32.3035C255.323 32.4834 255.717 32.5707 256.113 32.5564C256.458 32.5648 256.798 32.4866 257.101 32.3297C257.378 32.1824 257.606 31.9651 257.762 31.7016C257.924 31.4219 258.006 31.1058 257.999 30.7858C258.013 30.358 257.897 29.9354 257.666 29.569C257.44 29.237 257.158 28.9424 256.833 28.6968Z" fill="white"/>
<path d="M50.3443 13.8207H56.0703C60.1153 13.8207 62.1378 12.178 62.1378 8.89251V5.06337C62.1378 1.76338 60.1153 0.111938 56.0703 0.10903H44.3451V19.5339H50.3443V13.8207ZM50.3443 4.52694H55.7605C56.0111 4.52694 56.1386 4.63161 56.1386 4.83658V9.08876C56.1386 9.2981 56.0111 9.39841 55.7605 9.39841H50.3443V4.52694Z" fill="white"/>
<path d="M83.2376 19.5339L83.9255 18.5482L80.3405 12.835C82.2719 12.1198 83.2376 10.6181 83.2376 8.32991V5.06337C83.2376 1.76338 81.2151 0.111938 77.1701 0.10903H65.4449V19.5339H71.4442V13.2581H74.1317L78.0629 19.5339H83.2376ZM77.2384 8.52617C77.2384 8.73551 77.1109 8.83581 76.8558 8.83581H71.4442V4.52694H76.8558C77.1109 4.52694 77.2384 4.63161 77.2384 4.83658V8.52617Z" fill="white"/>
<path d="M103.545 15.116H92.8902V11.8494H102.506V7.42714H92.8902V4.52694H103.545V0.10903H86.8909V19.5339H103.545V15.116Z" fill="white"/>
<path d="M126.089 11.1429V8.5C126.089 2.90602 122.665 0.10903 115.817 0.10903H106.92V19.5339H115.817C122.662 19.5339 126.086 16.7369 126.089 11.1429ZM120.089 11.8756C120.089 14.0358 118.779 15.116 116.158 15.116H112.919V4.52694H116.158C118.782 4.52694 120.092 5.60706 120.089 7.76732V11.8756Z" fill="white"/>
<path d="M135.741 0.10903H129.742V19.5339H135.741V0.10903Z" fill="white"/>
<path d="M144.706 0.10903L137.982 18.6311L138.707 19.5339H143.74L144.911 16.0711H153.461L154.636 19.5339H159.647L160.371 18.6311L153.671 0.10903H144.706ZM146.501 11.6532L148.979 4.52694H149.411L151.894 11.6532H146.501Z" fill="white"/>
<path d="M178.251 15.116H168.63V0.10903H162.631V19.5339H178.251V15.116Z" fill="white"/>
<path d="M175.768 4.52694H182.665V19.5339H188.664V4.52694H195.556V0.10903H175.768V4.52694Z" fill="white"/>
<path d="M198.038 19.5339H214.692V15.116H204.038V11.8494H213.658V7.42714H204.038V4.52694H214.692V0.10903H198.038V19.5339Z" fill="white"/>
<path d="M223.794 19.5339H232.722L235.409 17.8461V15.116H224.117C223.862 15.116 223.734 15.0113 223.734 14.8063V4.83658C223.734 4.63161 223.862 4.52694 224.117 4.52694H235.423V1.79682L232.722 0.10903H223.794C219.758 0.10903 217.74 1.76048 217.74 5.06337V14.5795C217.74 17.8824 219.758 19.5339 223.794 19.5339Z" fill="white"/>
<path d="M251.959 0.10903V7.42714H244.789V0.10903H238.789V19.5339H244.789V11.8494H251.959V19.5339H257.958V0.10903H251.959Z" fill="white"/>
<path d="M64.3061 23.5505H61.8964V24.2004H64.3061V23.5505Z" fill="white"/>
<path d="M114.623 23.5505H112.213V24.2004H114.623V23.5505Z" fill="white"/>
<path d="M109.995 33.3502H107.585V34H109.995V33.3502Z" fill="white"/>
<path d="M159.337 33.3502H156.928V34H159.337V33.3502Z" fill="white"/>
<path d="M164.029 23.5505H161.619V24.2004H164.029V23.5505Z" fill="white"/>
</svg>
