<svg width="44" height="48" viewBox="0 0 44 48" fill="none" xmlns="http://www.w3.org/2000/svg">
<path d="M41.1666 43.3325C42.3632 43.3325 43.3333 44.3026 43.3333 45.4992C43.3333 46.6958 42.3632 47.6659 41.1666 47.6659H2.16666C0.970049 47.6659 0 46.6958 0 45.4992C0 44.3026 0.970049 43.3325 2.16666 43.3325H41.1666Z" fill="#FAC114"/>
<path d="M6.49999 36.8326V21.6659C6.49999 20.4693 7.47004 19.4992 8.66666 19.4992C9.86327 19.4992 10.8333 20.4693 10.8333 21.6659V36.8326C10.8333 38.0292 9.86327 38.9992 8.66666 38.9992C7.47004 38.9992 6.49999 38.0292 6.49999 36.8326Z" fill="#FAC114"/>
<path d="M15.1667 36.8326V21.6659C15.1667 20.4693 16.1367 19.4992 17.3333 19.4992C18.5299 19.4992 19.5 20.4693 19.5 21.6659V36.8326C19.5 38.0292 18.5299 38.9992 17.3333 38.9992C16.1367 38.9992 15.1667 38.0292 15.1667 36.8326Z" fill="#FAC114"/>
<path d="M23.8333 36.8326V21.6659C23.8333 20.4693 24.8034 19.4992 26 19.4992C27.1966 19.4992 28.1666 20.4693 28.1666 21.6659V36.8326C28.1666 38.0292 27.1966 38.9992 26 38.9992C24.8034 38.9992 23.8333 38.0292 23.8333 36.8326Z" fill="#FAC114"/>
<path d="M32.5 36.8326V21.6659C32.5 20.4693 33.47 19.4992 34.6666 19.4992C35.8633 19.4992 36.8333 20.4693 36.8333 21.6659V36.8326C36.8333 38.0292 35.8633 38.9992 34.6666 38.9992C33.47 38.9992 32.5 38.0292 32.5 36.8326Z" fill="#FAC114"/>
<path d="M20.5177 0.329337C21.2203 -0.109779 22.113 -0.109779 22.8156 0.329337L40.1489 11.1627C40.9679 11.675 41.3481 12.6672 41.082 13.5959C40.8155 14.525 39.9665 15.1659 39 15.1659H4.33333C3.36676 15.1659 2.51777 14.525 2.2513 13.5959C1.98514 12.6672 2.3654 11.675 3.1844 11.1627L20.5177 0.329337ZM11.887 10.8326H31.4463L21.6666 4.71979L11.887 10.8326Z" fill="#FAC114"/>
</svg>
