<svg width="42" height="52" viewBox="0 0 42 52" fill="none" xmlns="http://www.w3.org/2000/svg">
<path d="M27.8609 37.8181C29.124 37.8181 30.148 38.8764 30.148 40.1818V47.2727H34.722C35.9851 47.2727 37.0091 46.2144 37.0091 44.909V7.0909C37.0091 5.7855 35.9851 4.72727 34.722 4.72727H7.27761C6.01451 4.72727 4.99057 5.7855 4.99057 7.0909V44.909C4.99057 46.2144 6.01451 47.2727 7.27761 47.2727H11.8517V40.1818C11.8517 38.8764 12.8756 37.8181 14.1387 37.8181H27.8609ZM16.4257 47.2727H25.5739V42.5454H16.4257V47.2727ZM11.874 28.3636C13.1371 28.3636 14.161 29.4218 14.161 30.7272C14.161 32.0326 13.1371 33.0909 11.874 33.0909H11.8517C10.5886 33.0909 9.56464 32.0326 9.56464 30.7272C9.56464 29.4218 10.5886 28.3636 11.8517 28.3636H11.874ZM21.0222 28.3636C22.2852 28.3636 23.3092 29.4218 23.3092 30.7272C23.3092 32.0326 22.2852 33.0909 21.0222 33.0909H20.9998C19.7367 33.0909 18.7128 32.0326 18.7128 30.7272C18.7128 29.4218 19.7367 28.3636 20.9998 28.3636H21.0222ZM30.1703 28.3636C31.4334 28.3636 32.4573 29.4218 32.4573 30.7272C32.4573 32.0326 31.4334 33.0909 30.1703 33.0909H30.148C28.8849 33.0909 27.8609 32.0326 27.8609 30.7272C27.8609 29.4218 28.8849 28.3636 30.148 28.3636H30.1703ZM11.874 18.9091C13.1371 18.9091 14.161 19.9673 14.161 21.2727C14.161 22.5781 13.1371 23.6363 11.874 23.6363H11.8517C10.5886 23.6363 9.56464 22.5781 9.56464 21.2727C9.56464 19.9673 10.5886 18.9091 11.8517 18.9091H11.874ZM21.0222 18.9091C22.2852 18.9091 23.3092 19.9673 23.3092 21.2727C23.3092 22.5781 22.2852 23.6363 21.0222 23.6363H20.9998C19.7367 23.6363 18.7128 22.5781 18.7128 21.2727C18.7128 19.9673 19.7367 18.9091 20.9998 18.9091H21.0222ZM30.1703 18.9091C31.4334 18.9091 32.4573 19.9673 32.4573 21.2727C32.4573 22.5781 31.4334 23.6363 30.1703 23.6363H30.148C28.8849 23.6363 27.8609 22.5781 27.8609 21.2727C27.8609 19.9673 28.8849 18.9091 30.148 18.9091H30.1703ZM11.874 9.45454C13.1371 9.45454 14.161 10.5128 14.161 11.8182C14.161 13.1236 13.1371 14.1818 11.874 14.1818H11.8517C10.5886 14.1818 9.56464 13.1236 9.56464 11.8182C9.56464 10.5128 10.5886 9.45454 11.8517 9.45454H11.874ZM21.0222 9.45454C22.2852 9.45454 23.3092 10.5128 23.3092 11.8182C23.3092 13.1236 22.2852 14.1818 21.0222 14.1818H20.9998C19.7367 14.1818 18.7128 13.1236 18.7128 11.8182C18.7128 10.5128 19.7367 9.45454 20.9998 9.45454H21.0222ZM30.1703 9.45454C31.4334 9.45454 32.4573 10.5128 32.4573 11.8182C32.4573 13.1236 31.4334 14.1818 30.1703 14.1818H30.148C28.8849 14.1818 27.8609 13.1236 27.8609 11.8182C27.8609 10.5128 28.8849 9.45454 30.148 9.45454H30.1703ZM41.5831 44.909C41.5831 48.8252 38.5113 51.9999 34.722 51.9999H7.27761C3.48832 51.9999 0.416504 48.8252 0.416504 44.909V7.0909C0.416504 3.17471 3.48832 0 7.27761 0H34.722C38.5113 0 41.5831 3.1747 41.5831 7.0909V44.909Z" fill="#FAC114"/>
</svg>
