<svg width="48" height="42" viewBox="0 0 48 42" fill="none" xmlns="http://www.w3.org/2000/svg">
<path d="M23.8312 3.6665C24.7618 3.66657 25.6823 3.8664 26.5289 4.2526L26.5268 4.25472L45.0979 12.7098L45.0958 12.7119C45.8511 13.0409 46.4989 13.5769 46.9599 14.2607C47.4334 14.9634 47.6894 15.7896 47.6984 16.6369C47.7071 17.4847 47.4679 18.3173 47.0086 19.0299C46.5532 19.7365 45.901 20.2929 45.1339 20.6359L45.136 20.638L26.5247 29.0846C25.6791 29.4696 24.7604 29.6685 23.8312 29.6686C23.0171 29.6686 22.2109 29.5147 21.4551 29.2179L21.1334 29.0825L2.56445 20.6147C1.80658 20.2757 1.16133 19.7252 0.706705 19.0299C0.245857 18.325 0 17.5002 0 16.658C0.00011095 15.8161 0.246105 14.9929 0.706705 14.2882C1.16194 13.5919 1.80728 13.0403 2.56657 12.7013L21.1334 4.25472C21.9802 3.8685 22.9005 3.6665 23.8312 3.6665ZM4.36295 16.6728L22.9319 25.1385C23.2142 25.2672 23.5209 25.3353 23.8312 25.3353C24.1413 25.3352 24.4483 25.2672 24.7304 25.1385H24.7347L43.346 16.6919L43.3671 16.6834C43.3454 16.6744 43.323 16.6636 43.3016 16.6538L24.7304 8.19661C24.4483 8.06792 24.1413 7.9999 23.8312 7.99983C23.5211 7.99983 23.2141 8.06591 22.9319 8.19449L22.9298 8.19661L4.36084 16.6453L4.33333 16.658L4.36295 16.6728Z" fill="#FAC114"/>
<path d="M43.3307 29.6672V16.6673C43.3307 15.4706 44.3008 14.5006 45.4974 14.5006C46.694 14.5006 47.6641 15.4706 47.6641 16.6673V29.6672C47.6641 30.8639 46.694 31.8339 45.4974 31.8339C44.3008 31.8339 43.3307 30.8639 43.3307 29.6672Z" fill="#FAC114"/>
<path d="M8.66411 29.6672V22.0839C8.66411 20.8873 9.63415 19.9173 10.8308 19.9173C12.0274 19.9173 12.9974 20.8873 12.9974 22.0839V29.6672L13.0207 29.8767C13.1345 30.4259 13.7086 31.3757 15.6063 32.3248C17.6744 33.3589 20.6326 34.0006 23.8308 34.0006L25.0178 33.971C27.7545 33.8341 30.2456 33.2296 32.0552 32.3248C34.2237 31.2402 34.6641 30.1548 34.6641 29.6672V22.0839C34.6641 20.8873 35.6341 19.9173 36.8307 19.9173C38.0274 19.9173 38.9974 20.8873 38.9974 22.0839V29.6672C38.9974 32.6274 36.6977 34.8479 33.9912 36.2011C31.3588 37.5172 27.9812 38.2403 24.5226 38.3254L23.8308 38.3339C20.1336 38.3339 16.478 37.6048 13.6703 36.2011C10.9638 34.8479 8.66411 32.6274 8.66411 29.6672Z" fill="#FAC114"/>
</svg>
