<svg width="48" height="48" viewBox="0 0 48 48" fill="none" xmlns="http://www.w3.org/2000/svg">
<path d="M21.6666 19.5V10.8333C21.6666 9.63671 22.6367 8.66666 23.8333 8.66666C25.0299 8.66666 26 9.63671 26 10.8333V19.5C26 20.6966 25.0299 21.6666 23.8333 21.6666C22.6367 21.6666 21.6666 20.6966 21.6666 19.5Z" fill="#FAC114"/>
<path d="M28.1666 26C29.3633 26 30.3333 26.97 30.3333 28.1666C30.3333 29.3633 29.3633 30.3333 28.1666 30.3333H19.5C18.3034 30.3333 17.3333 29.3633 17.3333 28.1666C17.3333 26.97 18.3034 26 19.5 26H28.1666Z" fill="#FAC114"/>
<path d="M28.1666 34.6666C29.3633 34.6666 30.3333 35.6367 30.3333 36.8333C30.3333 38.0299 29.3633 39 28.1666 39H19.5C18.3034 39 17.3333 38.0299 17.3333 36.8333C17.3333 35.6367 18.3034 34.6666 19.5 34.6666H28.1666Z" fill="#FAC114"/>
<path d="M28.1666 13C29.3633 13 30.3333 13.97 30.3333 15.1667C30.3333 16.3633 29.3633 17.3333 28.1666 17.3333H19.5C18.3034 17.3333 17.3333 16.3633 17.3333 15.1667C17.3333 13.97 18.3034 13 19.5 13H28.1666Z" fill="#FAC114"/>
<path d="M0 41.1666V21.6666C0 19.9427 0.68531 18.2899 1.90429 17.0709C3.12328 15.852 4.77609 15.1667 6.49999 15.1667H10.8333C12.0299 15.1667 13 16.1367 13 17.3333C13 18.5299 12.0299 19.5 10.8333 19.5H6.49999C5.92536 19.5 5.37442 19.7284 4.96809 20.1347C4.56177 20.5411 4.33333 21.092 4.33333 21.6666V41.1666C4.33333 41.7413 4.56177 42.2922 4.96809 42.6985C5.37442 43.1049 5.92536 43.3333 6.49999 43.3333H41.1666C41.7413 43.3333 42.2922 43.1049 42.6985 42.6985C43.1049 42.2922 43.3333 41.7413 43.3333 41.1666V28.1666C43.3333 27.592 43.1049 27.0411 42.6985 26.6347C42.2922 26.2284 41.7413 26 41.1666 26H36.8333C35.6367 26 34.6666 25.0299 34.6666 23.8333C34.6666 22.6367 35.6367 21.6666 36.8333 21.6666H41.1666C42.8905 21.6666 44.5433 22.352 45.7623 23.5709C46.9813 24.7899 47.6666 26.4427 47.6666 28.1666V41.1666C47.6666 42.8905 46.9813 44.5433 45.7623 45.7623C44.5433 46.9813 42.8905 47.6666 41.1666 47.6666H6.49999C4.77609 47.6666 3.12328 46.9813 1.90429 45.7623C0.68531 44.5433 0 42.8905 0 41.1666Z" fill="#FAC114"/>
<path d="M34.6666 45.5V6.49999C34.6666 5.92536 34.4382 5.37442 34.0319 4.96809C33.6255 4.56177 33.0746 4.33333 32.5 4.33333H15.1667C14.592 4.33333 14.0411 4.56177 13.6348 4.96809C13.2284 5.37442 13 5.92536 13 6.49999V45.5C13 46.6966 12.0299 47.6666 10.8333 47.6666C9.63671 47.6666 8.66666 46.6966 8.66666 45.5V6.49999C8.66666 4.77609 9.35197 3.12328 10.571 1.90429C11.7899 0.685309 13.4427 0 15.1667 0H32.5C34.2239 0 35.8767 0.68531 37.0957 1.90429C38.3146 3.12328 39 4.77609 39 6.49999V45.5C39 46.6966 38.0299 47.6666 36.8333 47.6666C35.6367 47.6666 34.6666 46.6966 34.6666 45.5Z" fill="#FAC114"/>
</svg>
