<svg width="42" height="48" viewBox="0 0 42 48" fill="none" xmlns="http://www.w3.org/2000/svg">
<path d="M14.5 45.5006V31.265C14.5 30.0684 15.47 29.0983 16.6667 29.0983C17.8633 29.0983 18.8333 30.0684 18.8333 31.265V45.5006C18.8329 46.6969 17.863 47.6673 16.6667 47.6673C15.4703 47.6673 14.5004 46.6969 14.5 45.5006Z" fill="#FAC114"/>
<path d="M21.0211 19.5C22.2178 19.5 23.1878 20.47 23.1878 21.6666C23.1878 22.8633 22.2178 23.8333 21.0211 23.8333H21C19.8034 23.8333 18.8333 22.8633 18.8333 21.6666C18.8333 20.47 19.8034 19.5 21 19.5H21.0211Z" fill="#FAC114"/>
<path d="M21.0211 10.8333C22.2178 10.8333 23.1878 11.8034 23.1878 13C23.1878 14.1966 22.2178 15.1667 21.0211 15.1667H21C19.8034 15.1667 18.8333 14.1966 18.8333 13C18.8333 11.8034 19.8034 10.8333 21 10.8333H21.0211Z" fill="#FAC114"/>
<path d="M23.1666 45.5006V31.265C23.1666 30.0684 24.1367 29.0983 25.3333 29.0983C26.5299 29.0983 27.5 30.0684 27.5 31.265V45.5006C27.4996 46.6969 26.5297 47.6673 25.3333 47.6673C24.1369 47.6673 23.167 46.6969 23.1666 45.5006Z" fill="#FAC114"/>
<path d="M21 28.1666C23.8126 28.1666 26.5489 29.0795 28.7991 30.7671C29.7563 31.4849 29.9506 32.8418 29.2329 33.7991C28.515 34.7563 27.1581 34.9505 26.2008 34.2329C24.7007 33.1078 22.8752 32.5 21 32.5C19.1248 32.5 17.2993 33.1078 15.7991 34.2329C14.8419 34.9505 13.485 34.7563 12.7671 33.7991C12.0494 32.8418 12.2437 31.4849 13.2008 30.7671C15.451 29.0795 18.1873 28.1666 21 28.1666Z" fill="#FAC114"/>
<path d="M29.6878 19.5C30.8844 19.5 31.8545 20.47 31.8545 21.6666C31.8545 22.8633 30.8844 23.8333 29.6878 23.8333H29.6666C28.47 23.8333 27.5 22.8633 27.5 21.6666C27.5 20.47 28.47 19.5 29.6666 19.5H29.6878Z" fill="#FAC114"/>
<path d="M29.6878 10.8333C30.8844 10.8333 31.8545 11.8034 31.8545 13C31.8545 14.1966 30.8844 15.1667 29.6878 15.1667H29.6666C28.47 15.1667 27.5 14.1966 27.5 13C27.5 11.8034 28.47 10.8333 29.6666 10.8333H29.6878Z" fill="#FAC114"/>
<path d="M12.3545 19.5C13.5511 19.5 14.5211 20.47 14.5211 21.6666C14.5211 22.8633 13.5511 23.8333 12.3545 23.8333H12.3333C11.1367 23.8333 10.1667 22.8633 10.1667 21.6666C10.1667 20.47 11.1367 19.5 12.3333 19.5H12.3545Z" fill="#FAC114"/>
<path d="M12.3545 10.8333C13.5511 10.8333 14.5211 11.8034 14.5211 13C14.5211 14.1966 13.5511 15.1667 12.3545 15.1667H12.3333C11.1367 15.1667 10.1667 14.1966 10.1667 13C10.1667 11.8034 11.1367 10.8333 12.3333 10.8333H12.3545Z" fill="#FAC114"/>
<path d="M36.1666 6.49999C36.1666 5.30338 35.1966 4.33333 34 4.33333H7.99999C6.80338 4.33333 5.83333 5.30338 5.83333 6.49999V41.1666C5.83333 42.3632 6.80338 43.3333 7.99999 43.3333H34C35.1966 43.3333 36.1666 42.3632 36.1666 41.1666V6.49999ZM40.5 41.1666C40.5 44.7565 37.5898 47.6666 34 47.6666H7.99999C4.41015 47.6666 1.5 44.7565 1.5 41.1666V6.49999C1.5 2.91015 4.41015 0 7.99999 0H34C37.5898 0 40.5 2.91015 40.5 6.49999V41.1666Z" fill="#FAC114"/>
</svg>
