<svg width="48" height="48" viewBox="0 0 48 48" fill="none" xmlns="http://www.w3.org/2000/svg">
<path d="M13 6.49999C13 5.92536 12.7715 5.37442 12.3652 4.96809C12.0096 4.61245 11.5432 4.39307 11.047 4.34391L10.8333 4.33333H6.49999C5.92536 4.33333 5.37442 4.56177 4.96809 4.96809C4.56177 5.37442 4.33333 5.92536 4.33333 6.49999V41.1666C4.33333 41.7413 4.56177 42.2922 4.96809 42.6985C5.37442 43.1049 5.92536 43.3333 6.49999 43.3333H41.1666C41.7413 43.3333 42.2922 43.1049 42.6985 42.6985C43.1049 42.2922 43.3333 41.7413 43.3333 41.1666V19.3751L31.5923 27.7625C30.9318 28.2342 30.0626 28.2989 29.341 27.9275C28.6195 27.5561 28.1666 26.8115 28.1666 26V19.3751L16.4256 27.7625C15.7652 28.2342 14.896 28.2989 14.1743 27.9275C13.4528 27.5561 13 26.8115 13 26V6.49999ZM15.1667 34.6666C16.3633 34.6666 17.3333 35.6367 17.3333 36.8333C17.3333 38.0299 16.3633 39 15.1667 39H13C11.8034 39 10.8333 38.0299 10.8333 36.8333C10.8333 35.6367 11.8034 34.6666 13 34.6666H15.1667ZM26 34.6666C27.1966 34.6666 28.1666 35.6367 28.1666 36.8333C28.1666 38.0299 27.1966 39 26 39H23.8333C22.6367 39 21.6666 38.0299 21.6666 36.8333C21.6666 35.6367 22.6367 34.6666 23.8333 34.6666H26ZM36.8333 34.6666C38.0299 34.6666 39 35.6367 39 36.8333C39 38.0299 38.0299 39 36.8333 39H34.6666C33.47 39 32.5 38.0299 32.5 36.8333C32.5 35.6367 33.47 34.6666 34.6666 34.6666H36.8333ZM17.3333 21.7894L29.0744 13.4041C29.7348 12.9324 30.604 12.8677 31.3257 13.2391C32.0471 13.6105 32.5 14.3552 32.5 15.1667V21.7894L44.241 13.4041C44.9014 12.9324 45.7706 12.8677 46.4923 13.2391C47.2138 13.6105 47.6666 14.3552 47.6666 15.1667V41.1666C47.6666 42.8905 46.9813 44.5433 45.7623 45.7623C44.5433 46.9813 42.8905 47.6666 41.1666 47.6666H6.49999C4.77609 47.6666 3.12328 46.9813 1.90429 45.7623C0.68531 44.5433 0 42.8905 0 41.1666V6.49999C0 4.77609 0.685309 3.12328 1.90429 1.90429C3.12328 0.685309 4.77609 0 6.49999 0H10.8333C12.5572 0 14.21 0.685309 15.429 1.90429C16.648 3.12328 17.3333 4.77609 17.3333 6.49999V21.7894Z" fill="#FAC114"/>
</svg>
