<svg width="48" height="46" viewBox="0 0 48 46" fill="none" xmlns="http://www.w3.org/2000/svg">
<path d="M43.3333 13.4247L43.3079 13.1031C43.259 12.7854 43.1391 12.4803 42.9567 12.2123C42.7135 11.8556 42.3696 11.5786 41.9685 11.4189H41.9643L24.6352 4.48725L24.4384 4.41954C23.977 4.28526 23.4816 4.30796 23.0314 4.48725L5.70231 11.4189H5.69807C5.29698 11.5786 4.95316 11.8556 4.70996 12.2123C4.46672 12.5695 4.33507 12.9927 4.33333 13.4247V38.6566L4.34391 38.8704C4.393 39.3666 4.61247 39.8329 4.96809 40.1885C5.37442 40.5949 5.92536 40.8233 6.49999 40.8233H41.1666C41.7413 40.8233 42.2922 40.5949 42.6985 40.1885C43.1048 39.7822 43.3333 39.2312 43.3333 38.6566V13.4247ZM47.6666 38.6566C47.6666 40.3805 46.9812 42.0334 45.7623 43.2523C44.5433 44.4713 42.8905 45.1566 41.1666 45.1566H6.49999C4.77609 45.1566 3.12328 44.4713 1.90429 43.2523C0.837884 42.1859 0.179568 40.7876 0.0317382 39.2999L0 38.6566V13.4057L0.0190429 12.9233C0.107505 11.7979 0.489333 10.7125 1.12777 9.77484C1.85694 8.70424 2.88896 7.87424 4.09212 7.39447L21.4254 0.46284L21.4275 0.460724C22.7787 -0.0773927 24.2658 -0.143769 25.6509 0.259715L26.2391 0.460724L26.2412 0.46284L43.5745 7.39447C44.7784 7.87413 45.8093 8.70369 46.5388 9.77484C47.2681 10.8459 47.6612 12.11 47.6666 13.4057V38.6566Z" fill="#FAC114"/>
<path d="M36.8333 32.157C38.0299 32.157 39 33.127 39 34.3236C39 35.5202 38.0299 36.4903 36.8333 36.4903H10.8333C9.63671 36.4903 8.66666 35.5202 8.66666 34.3236C8.66666 33.127 9.63671 32.157 10.8333 32.157H36.8333Z" fill="#FAC114"/>
<path d="M36.8333 23.4903C38.0299 23.4903 39 24.4603 39 25.657C39 26.8536 38.0299 27.8236 36.8333 27.8236H10.8333C9.63671 27.8236 8.66666 26.8536 8.66666 25.657C8.66666 24.4603 9.63671 23.4903 10.8333 23.4903H36.8333Z" fill="#FAC114"/>
<path d="M36.8333 14.8236C38.0299 14.8236 39 15.7937 39 16.9903V42.9903C39 44.1869 38.0299 45.1569 36.8333 45.1569H10.8333C9.63671 45.1569 8.66666 44.1869 8.66666 42.9903V16.9903C8.66666 15.7937 9.63671 14.8236 10.8333 14.8236H36.8333ZM13 40.8236H34.6666V19.157H13V40.8236Z" fill="#FAC114"/>
</svg>
