<svg width="44" height="48" viewBox="0 0 44 48" fill="none" xmlns="http://www.w3.org/2000/svg">
<path d="M39 11.5527L33.5854 4.33333H9.74788L4.33333 11.5527V41.1666C4.33333 41.7413 4.56177 42.2922 4.96809 42.6985C5.37442 43.1049 5.92536 43.3333 6.49999 43.3333H36.8333C37.4079 43.3333 37.9589 43.1049 38.3652 42.6985C38.7715 42.2922 39 41.7413 39 41.1666V11.5527ZM43.3333 41.1666C43.3333 42.8905 42.648 44.5433 41.429 45.7623C40.21 46.9813 38.5572 47.6666 36.8333 47.6666H6.49999C4.77609 47.6666 3.12328 46.9813 1.9043 45.7623C0.68531 44.5433 0 42.8905 0 41.1666V10.8333C0 10.3647 0.152638 9.90915 0.433756 9.53417L6.93375 0.867512L7.09667 0.672851C7.50306 0.245679 8.06977 0 8.66666 0H34.6666C35.3486 0 35.9904 0.321933 36.3995 0.867512L42.8995 9.53417C43.1807 9.90915 43.3333 10.3647 43.3333 10.8333V41.1666Z" fill="#FAC114"/>
<path d="M41.1666 8.66666C42.3632 8.66666 43.3333 9.63671 43.3333 10.8333C43.3333 12.0299 42.3632 13 41.1666 13H2.16666C0.970049 13 0 12.0299 0 10.8333C0 9.63671 0.970049 8.66666 2.16666 8.66666H41.1666Z" fill="#FAC114"/>
<path d="M10.8333 19.5C10.8333 18.3034 11.8034 17.3333 13 17.3333C14.1966 17.3333 15.1667 18.3034 15.1667 19.5C15.1667 21.2239 15.852 22.8767 17.0709 24.0957C18.2899 25.3147 19.9427 26 21.6666 26L22.3099 25.9682C23.7976 25.8203 25.1959 25.1621 26.2623 24.0957C27.4813 22.8767 28.1666 21.2239 28.1666 19.5C28.1666 18.3034 29.1367 17.3333 30.3333 17.3333C31.5299 17.3333 32.5 18.3034 32.5 19.5C32.5 22.3732 31.3578 25.1278 29.3261 27.1595C27.4215 29.0641 24.8816 30.1877 22.2041 30.3206L21.6666 30.3333C18.7935 30.3333 16.0388 29.1911 14.0071 27.1595C11.9755 25.1278 10.8333 22.3732 10.8333 19.5Z" fill="#FAC114"/>
</svg>
